<svg width="159" height="45" viewBox="0 0 159 45" fill="none" xmlns="http://www.w3.org/2000/svg">
<path d="M8.48586 25.4577C3.79923 20.771 3.79924 13.1725 8.48589 8.48583C13.1725 3.79918 20.7711 3.79917 25.4577 8.4858C30.1444 13.1724 22.0489 15.2896 18.6693 18.6692C15.2897 22.0489 13.1725 30.1443 8.48586 25.4577Z" fill="url(#paint0_linear_1_34)"/>
<path d="M23.7656 20.5234C28.2507 25.0085 28.2507 32.2804 23.7656 36.7655C19.2804 41.2507 12.0085 41.2507 7.5234 36.7656C3.03826 32.2804 10.7856 30.2543 14.02 27.02C17.2543 23.7856 19.2804 16.0383 23.7656 20.5234Z" fill="url(#paint1_linear_1_34)"/>
<path d="M39.368 30.288C38.136 30.288 37.048 30.08 36.104 29.664C35.16 29.232 34.416 28.624 33.872 27.84C33.328 27.04 33.048 26.072 33.032 24.936H36.272C36.304 25.72 36.584 26.384 37.112 26.928C37.656 27.456 38.4 27.72 39.344 27.72C40.16 27.72 40.808 27.528 41.288 27.144C41.768 26.744 42.008 26.216 42.008 25.56C42.008 24.872 41.792 24.336 41.36 23.952C40.944 23.568 40.384 23.256 39.68 23.016C38.976 22.776 38.224 22.52 37.424 22.248C36.128 21.8 35.136 21.224 34.448 20.52C33.776 19.816 33.44 18.88 33.44 17.712C33.424 16.72 33.656 15.872 34.136 15.168C34.632 14.448 35.304 13.896 36.152 13.512C37 13.112 37.976 12.912 39.08 12.912C40.2 12.912 41.184 13.112 42.032 13.512C42.896 13.912 43.568 14.472 44.048 15.192C44.544 15.912 44.808 16.768 44.84 17.76H41.552C41.536 17.168 41.304 16.648 40.856 16.2C40.424 15.736 39.816 15.504 39.032 15.504C38.36 15.488 37.792 15.656 37.328 16.008C36.88 16.344 36.656 16.84 36.656 17.496C36.656 18.056 36.832 18.504 37.184 18.84C37.536 19.16 38.016 19.432 38.624 19.656C39.232 19.88 39.928 20.12 40.712 20.376C41.544 20.664 42.304 21 42.992 21.384C43.68 21.768 44.232 22.28 44.648 22.92C45.064 23.544 45.272 24.352 45.272 25.344C45.272 26.224 45.048 27.04 44.6 27.792C44.152 28.544 43.488 29.152 42.608 29.616C41.728 30.064 40.648 30.288 39.368 30.288ZM53.1843 30C51.9363 30 50.9363 29.696 50.1843 29.088C49.4323 28.48 49.0563 27.4 49.0563 25.848V20.664H47.0163V18.096H49.0563L49.4163 14.904H52.1283V18.096H55.3443V20.664H52.1283V25.872C52.1283 26.448 52.2483 26.848 52.4883 27.072C52.7443 27.28 53.1763 27.384 53.7843 27.384H55.2723V30H53.1843ZM62.0859 30.288C61.0619 30.288 60.2219 30.128 59.5659 29.808C58.9099 29.472 58.4219 29.032 58.1019 28.488C57.7819 27.944 57.6219 27.344 57.6219 26.688C57.6219 25.584 58.0539 24.688 58.9179 24C59.7819 23.312 61.0779 22.968 62.8059 22.968H65.8299V22.68C65.8299 21.864 65.5979 21.264 65.1339 20.88C64.6699 20.496 64.0939 20.304 63.4059 20.304C62.7819 20.304 62.2379 20.456 61.7739 20.76C61.3099 21.048 61.0219 21.48 60.9099 22.056H57.9099C57.9899 21.192 58.2779 20.44 58.7739 19.8C59.2859 19.16 59.9419 18.672 60.7419 18.336C61.5419 17.984 62.4379 17.808 63.4299 17.808C65.1259 17.808 66.4619 18.232 67.4379 19.08C68.4139 19.928 68.9019 21.128 68.9019 22.68V30H66.2859L65.9979 28.08C65.6459 28.72 65.1499 29.248 64.5099 29.664C63.8859 30.08 63.0779 30.288 62.0859 30.288ZM62.7819 27.888C63.6619 27.888 64.3419 27.6 64.8219 27.024C65.3179 26.448 65.6299 25.736 65.7579 24.888H63.1419C62.3259 24.888 61.7419 25.04 61.3899 25.344C61.0379 25.632 60.8619 25.992 60.8619 26.424C60.8619 26.888 61.0379 27.248 61.3899 27.504C61.7419 27.76 62.2059 27.888 62.7819 27.888ZM71.8334 30V18.096H74.5694L74.8574 20.328C75.2894 19.56 75.8734 18.952 76.6094 18.504C77.3614 18.04 78.2414 17.808 79.2494 17.808V21.048H78.3854C77.7134 21.048 77.1134 21.152 76.5854 21.36C76.0574 21.568 75.6414 21.928 75.3374 22.44C75.0494 22.952 74.9054 23.664 74.9054 24.576V30H71.8334ZM86.6531 30C85.4051 30 84.4051 29.696 83.6531 29.088C82.9011 28.48 82.5251 27.4 82.5251 25.848V20.664H80.4851V18.096H82.5251L82.8851 14.904H85.5971V18.096H88.8131V20.664H85.5971V25.872C85.5971 26.448 85.7171 26.848 85.9571 27.072C86.2131 27.28 86.6451 27.384 87.2531 27.384H88.7411V30H86.6531ZM91.5226 30V13.2H97.2586C99.2266 13.2 100.843 13.552 102.107 14.256C103.387 14.944 104.331 15.92 104.939 17.184C105.563 18.432 105.875 19.904 105.875 21.6C105.875 23.296 105.563 24.776 104.939 26.04C104.331 27.288 103.387 28.264 102.107 28.968C100.843 29.656 99.2266 30 97.2586 30H91.5226ZM94.5946 27.36H97.1146C98.5226 27.36 99.6346 27.136 100.451 26.688C101.267 26.224 101.851 25.568 102.203 24.72C102.555 23.856 102.731 22.816 102.731 21.6C102.731 20.4 102.555 19.368 102.203 18.504C101.851 17.64 101.267 16.976 100.451 16.512C99.6346 16.048 98.5226 15.816 97.1146 15.816H94.5946V27.36ZM114.297 30.288C113.097 30.288 112.033 30.032 111.105 29.52C110.177 29.008 109.449 28.288 108.921 27.36C108.393 26.432 108.129 25.36 108.129 24.144C108.129 22.912 108.385 21.816 108.897 20.856C109.425 19.896 110.145 19.152 111.057 18.624C111.985 18.08 113.073 17.808 114.321 17.808C115.489 17.808 116.521 18.064 117.417 18.576C118.313 19.088 119.009 19.792 119.505 20.688C120.017 21.568 120.273 22.552 120.273 23.64C120.273 23.816 120.265 24 120.249 24.192C120.249 24.384 120.241 24.584 120.225 24.792H111.177C111.241 25.72 111.561 26.448 112.137 26.976C112.729 27.504 113.441 27.768 114.273 27.768C114.897 27.768 115.417 27.632 115.833 27.36C116.265 27.072 116.585 26.704 116.793 26.256H119.913C119.689 27.008 119.313 27.696 118.785 28.32C118.273 28.928 117.633 29.408 116.865 29.76C116.113 30.112 115.257 30.288 114.297 30.288ZM114.321 20.304C113.569 20.304 112.905 20.52 112.329 20.952C111.753 21.368 111.385 22.008 111.225 22.872H117.153C117.105 22.088 116.817 21.464 116.289 21C115.761 20.536 115.105 20.304 114.321 20.304ZM122.857 30V18.096H125.569L125.833 19.704C126.217 19.128 126.721 18.672 127.345 18.336C127.985 17.984 128.721 17.808 129.553 17.808C131.393 17.808 132.697 18.52 133.465 19.944C133.897 19.288 134.473 18.768 135.193 18.384C135.929 18 136.729 17.808 137.593 17.808C139.145 17.808 140.337 18.272 141.169 19.2C142.001 20.128 142.417 21.488 142.417 23.28V30H139.345V23.568C139.345 22.544 139.145 21.76 138.745 21.216C138.361 20.672 137.761 20.4 136.945 20.4C136.113 20.4 135.441 20.704 134.929 21.312C134.433 21.92 134.185 22.768 134.185 23.856V30H131.113V23.568C131.113 22.544 130.913 21.76 130.513 21.216C130.113 20.672 129.497 20.4 128.665 20.4C127.849 20.4 127.185 20.704 126.673 21.312C126.177 21.92 125.929 22.768 125.929 23.856V30H122.857ZM151.045 30.288C149.893 30.288 148.853 30.024 147.925 29.496C147.013 28.968 146.285 28.24 145.741 27.312C145.213 26.368 144.949 25.28 144.949 24.048C144.949 22.816 145.221 21.736 145.765 20.808C146.309 19.864 147.037 19.128 147.949 18.6C148.877 18.072 149.917 17.808 151.069 17.808C152.205 17.808 153.229 18.072 154.141 18.6C155.069 19.128 155.797 19.864 156.325 20.808C156.869 21.736 157.141 22.816 157.141 24.048C157.141 25.28 156.869 26.368 156.325 27.312C155.797 28.24 155.069 28.968 154.141 29.496C153.213 30.024 152.181 30.288 151.045 30.288ZM151.045 27.624C151.845 27.624 152.541 27.328 153.133 26.736C153.725 26.128 154.021 25.232 154.021 24.048C154.021 22.864 153.725 21.976 153.133 21.384C152.541 20.776 151.853 20.472 151.069 20.472C150.253 20.472 149.549 20.776 148.957 21.384C148.381 21.976 148.093 22.864 148.093 24.048C148.093 25.232 148.381 26.128 148.957 26.736C149.549 27.328 150.245 27.624 151.045 27.624Z" fill="#0F2137"/>
<defs>
<linearGradient id="paint0_linear_1_34" x1="56" y1="-45" x2="-14" y2="62.5" gradientUnits="userSpaceOnUse">
<stop offset="0.397319" stop-color="#E90AD2"/>
<stop offset="0.641506" stop-color="#2400FF"/>
</linearGradient>
<linearGradient id="paint1_linear_1_34" x1="-37.2835" y1="24.9465" x2="-10.3117" y2="-10.6308" gradientUnits="userSpaceOnUse">
<stop offset="0.278518" stop-color="#FCC2D9"/>
<stop offset="1" stop-color="#FF0427"/>
</linearGradient>
</defs>
</svg>
